<svg xmlns="http://www.w3.org/2000/svg" width="57" height="57" fill="none" viewBox="0 0 57 57"><rect width="9.336" height="44.892" fill="#FF546D" rx="4.668" transform="matrix(0.863562 -0.504243 0.495769 0.868455 0.0358887 17.1986)"/><rect width="9.336" height="38.85" fill="#00D4E6" rx="4.668" transform="matrix(0.863562 -0.504243 0.495769 0.868455 28.33 7.67401)"/><rect width="9.389" height="44.154" fill="#FFAA50" rx="4.694" transform="matrix(-0.495769 -0.868455 0.863562 -0.504243 7.68622 30.6)"/><path fill="#6D86F5" d="M31.8162 49.2229C28.0322 52.1955 22.7081 56.9148 20.3256 52.7413C17.932 48.5482 23.4183 44.1102 27.1968 41.0936C28.8173 39.8 30.8834 38.3462 33.4823 36.8287C36.0811 35.3112 38.359 34.2284 40.277 33.456C44.7493 31.6547 51.2927 29.0685 53.6864 33.2616C56.0689 37.435 49.3658 39.7386 44.9283 41.5665C43.0473 42.3414 40.7854 43.4361 38.137 44.9825C35.4886 46.529 33.4202 47.9627 31.8162 49.2229Z"/><rect width="9.336" height="25.737" fill="#FF546D" rx="4.668" transform="matrix(0.863562 -0.504243 0.495769 0.868455 0.0408325 17.2069)"/><rect width="9.336" height="22.84" fill="#00D4E6" rx="4.668" transform="matrix(0.863562 -0.504243 0.495769 0.868455 36.2677 21.5788)"/></svg>